<?xml version="1.0" encoding="UTF-8"?>
<svg xmlns="http://www.w3.org/2000/svg" width="50" height="50" viewBox="0 0 50 50" nighteye="disabled">
    <path d="M 1.1875 0 C 0.9375 0 0.7 0.1125 0.5 0.3125 C 0.1 0.7125 0.1 1.2875 0.5 1.6875 L 48.5 49.6875 C 48.699 49.8875 48.9885 50 49.1875 50 C 49.3885 50 49.70525 49.8875 49.90625 49.6875 C 50.30525 49.2875 50.30525 48.7125 49.90625 48.3125 L 42.34375 40.75 C 47.167077 36.972466 50 31.200826 50 24.90625 C 50 17.20625 45.70525 10.3125 38.90625 6.8125 C 38.40625 6.6125 37.79275 6.6875 37.59375 7.1875 C 37.39475 7.8885 37.6 8.4875 38 8.6875 C 44.199 11.7875 48 18.1 48 25 C 48 30.68991 45.378265 35.974202 40.96875 39.375 L 37.78125 36.1875 C 41.076295 33.497749 43.09375 29.413467 43.09375 25 C 43.09375 19.7 40.2 14.8125 35.5 12.3125 C 35 12.0125 34.39375 12.1875 34.09375 12.6875 C 33.79375 13.1875 34.00625 13.8 34.40625 14 C 38.40625 16.2 41 20.4 41 25 C 41 28.819817 39.255484 32.397996 36.3125 34.71875 L 32.5 30.90625 C 34.608406 29.714858 36 27.504377 36 25 C 36 21.9 33.90625 19.20625 30.90625 18.40625 C 30.40625 18.30625 29.7865 18.59375 29.6875 19.09375 C 29.5885 19.59375 29.90625 20.2125 30.40625 20.3125 C 32.50625 20.8125 34 22.70625 34 24.90625 C 34 26.889688 32.778922 28.700583 31 29.40625 L 27 25.40625 L 27 6.3125 C 27 4.0125 25.4875 3 24.1875 3 C 23.2875 3 22.39375 3.3875 21.59375 4.1875 L 13.6875 12.09375 L 1.90625 0.3125 C 1.70625 0.1125 1.4375 0 1.1875 0 z M 11 14.6875 L 10 15.78125 L 10 34.1875 L 21.5 45.6875 C 22.6 46.7875 23.4875 47 24.1875 47 C 25.8875 47 27 45.5125 27 43.3125 L 27 30.6875 L 11 14.6875 z M 3 16 C 1.3 16 0 17.3 0 19 L 0 31 C 0 32.7 1.3 34 3 34 L 8 34 L 8 16 L 3 16 z"/>
</svg>